<?xml version="1.0" encoding="UTF-8"?> <svg xmlns="http://www.w3.org/2000/svg" width="96" height="108" viewBox="0 0 96 108" fill="none"><g filter="url(#filter0_d_111_11)"><rect x="4" y="48.5374" width="4.43213" height="42.1053" fill="#18FFFF"></rect><rect x="8.43262" y="48.5374" width="14.4044" height="4.43213" fill="#18FFFF"></rect><rect x="8.43262" y="67.374" width="14.4044" height="4.43213" fill="#18FFFF"></rect><rect x="4" y="2" width="4.43213" height="42.1053" fill="#18FFFF"></rect><rect x="8.43262" y="2" width="14.4044" height="4.43213" fill="#18FFFF"></rect><rect x="8.43262" y="20.8364" width="14.4044" height="4.43213" fill="#18FFFF"></rect><rect x="50.5381" y="2" width="4.43213" height="42.1053" fill="#18FFFF"></rect><rect x="54.9697" y="2" width="14.4044" height="4.43213" fill="#18FFFF"></rect><rect x="54.9697" y="20.8364" width="14.4044" height="4.43213" fill="#18FFFF"></rect><rect x="54.9697" y="39.6731" width="14.4044" height="4.43213" fill="#18FFFF"></rect><rect x="73.8066" y="2" width="4.43213" height="42.1053" fill="#18FFFF"></rect><rect x="78.2393" y="2" width="14.4044" height="4.43213" fill="#18FFFF"></rect><rect x="78.2393" y="20.8364" width="14.4044" height="4.43213" fill="#18FFFF"></rect><rect x="78.2393" y="39.6731" width="14.4044" height="4.43213" fill="#18FFFF"></rect><rect x="27.2686" y="48.5374" width="4.43213" height="42.1053" fill="#18FFFF"></rect><rect x="27.2686" y="2" width="4.43213" height="42.1053" fill="#18FFFF"></rect><path d="M33.9169 72.9141C37.1494 72.9141 40.2496 71.63 42.5354 69.3442C44.8211 67.0584 46.1052 63.9583 46.1052 60.7257C46.1052 57.4932 44.8211 54.393 42.5354 52.1072C40.2496 49.8215 37.1494 48.5374 33.9169 48.5374V52.9934C35.9676 52.9934 37.9344 53.8081 39.3844 55.2582C40.8345 56.7082 41.6492 58.675 41.6492 60.7257C41.6492 62.7765 40.8345 64.7432 39.3844 66.1933C37.9344 67.6434 35.9676 68.458 33.9169 68.458L33.9169 72.9141Z" fill="#18FFFF"></path><path d="M33.9169 26.3767C37.1494 26.3767 40.2496 25.0926 42.5354 22.8068C44.8211 20.5211 46.1052 17.4209 46.1052 14.1884C46.1052 10.9558 44.8211 7.85565 42.5354 5.56989C40.2496 3.28413 37.1494 2 33.9169 2V6.45607C35.9676 6.45607 37.9344 7.27072 39.3844 8.72081C40.8345 10.1709 41.6492 12.1376 41.6492 14.1884C41.6492 16.2391 40.8345 18.2058 39.3844 19.6559C37.9344 21.106 35.9676 21.9207 33.9169 21.9207L33.9169 26.3767Z" fill="#18FFFF"></path><rect x="33.917" y="68.4819" width="4.43213" height="2.21607" transform="rotate(90 33.917 68.4819)" fill="#18FFFF"></rect><rect x="33.917" y="21.9446" width="4.43213" height="2.21607" transform="rotate(90 33.917 21.9446)" fill="#18FFFF"></rect><rect x="33.917" y="48.5374" width="4.43213" height="2.49307" transform="rotate(90 33.917 48.5374)" fill="#18FFFF"></rect><rect x="33.917" y="2" width="4.43213" height="2.49307" transform="rotate(90 33.917 2)" fill="#18FFFF"></rect><path d="M36.1328 24.1606L40.565 24.1607L46.1051 44.1052H41.119L36.1328 24.1606Z" fill="#18FFFF"></path><path fill-rule="evenodd" clip-rule="evenodd" d="M59.9564 48.5374C54.7548 48.5374 50.5381 52.7541 50.5381 57.9556V81.2243C50.5381 86.4259 54.7548 90.6426 59.9564 90.6426C65.1579 90.6426 69.3747 86.4259 69.3747 81.2243V57.9556C69.3747 52.7541 65.1579 48.5374 59.9564 48.5374ZM59.956 52.9696C57.2023 52.9696 54.9699 55.2019 54.9699 57.9557V81.2244C54.9699 83.9782 57.2023 86.2106 59.956 86.2106C62.7098 86.2106 64.9422 83.9782 64.9422 81.2244V57.9557C64.9422 55.2019 62.7098 52.9696 59.956 52.9696Z" fill="#18FFFF"></path><path fill-rule="evenodd" clip-rule="evenodd" d="M73.8066 57.9556C73.8066 52.7541 78.0233 48.5374 83.2249 48.5374C88.4265 48.5374 92.6432 52.7541 92.6432 57.9556V65.1579H88.2113V57.9557C88.2113 55.2019 85.9789 52.9696 83.2251 52.9696C80.4714 52.9696 78.239 55.2019 78.239 57.9557V81.2244C78.239 83.9782 80.4714 86.2106 83.2251 86.2106C85.9789 86.2106 88.2113 83.9782 88.2113 81.2244V71.806H92.6432V81.2243C92.6432 86.4259 88.4265 90.6426 83.2249 90.6426C78.0233 90.6426 73.8066 86.4259 73.8066 81.2243V57.9556Z" fill="#18FFFF"></path><rect x="83.7783" y="71.8062" width="8.86427" height="4.43213" fill="#18FFFF"></rect><path fill-rule="evenodd" clip-rule="evenodd" d="M39.3344 83.7885C38.2783 80.1417 36.7201 74.7616 33.9141 72.083L39.3188 70.698L42.6429 83.8559C42.8147 84.8006 43.2528 85.7986 43.825 86.6848C44.5079 86.8685 45.1089 87.3395 45.4352 88.0288C45.4753 88.1136 45.5102 88.1995 45.5401 88.2862C45.5472 88.2858 45.5512 88.2864 45.552 88.2881L45.556 88.2968C45.5989 88.392 45.8178 88.8772 47.0866 89.1562C47.9034 89.3359 48.3667 88.9392 48.733 88.6255L48.7719 88.5922C48.9076 88.349 49.1177 88.1443 49.3885 88.0161C50.0799 87.6889 50.9057 87.9841 51.233 88.6755C51.5602 89.3669 51.265 90.1926 50.5736 90.5199C50.0592 90.7633 49.4705 90.6623 49.068 90.3099C48.8579 90.2113 48.6342 90.194 48.4116 90.1984L48.3772 90.1962C47.9207 90.1662 47.0071 90.1064 46.6792 90.9613C46.3711 91.7645 46.8776 92.3399 47.1597 92.6605L47.1597 92.6605L47.1598 92.6606C47.1857 92.69 47.2096 92.7172 47.2309 92.7423L47.9423 93.63C48.8941 94.4538 49.1746 94.5212 49.4332 94.5833L49.4599 94.5897C50.0594 94.4836 50.6794 94.7847 50.9524 95.3615C51.2797 96.0529 50.9845 96.8787 50.2931 97.206C49.6017 97.5332 48.7759 97.238 48.4486 96.5466C48.3611 96.3616 48.3181 96.167 48.3153 95.975C48.0798 95.6201 47.8766 95.3097 47.701 95.0412L47.7009 95.0411L47.7009 95.0411C47.2973 94.4243 47.0385 94.0289 46.8646 93.8241C46.7938 93.7457 46.7013 93.6271 46.5917 93.4864C46.3671 93.1984 46.0704 92.8177 45.7391 92.4998C45.1227 91.9083 44.9166 91.8877 44.3246 92.1178C43.7941 92.324 43.9164 92.9766 43.9886 93.3069L44.1854 94.3C44.354 94.9883 44.4664 95.4905 44.5497 95.8626L44.5497 95.8627L44.5497 95.8628C44.699 96.5296 44.7547 96.7786 44.8726 96.9318C45.0183 97.0553 45.1406 97.2112 45.2276 97.3951C45.5549 98.0865 45.2597 98.9123 44.5683 99.2395C43.8769 99.5668 43.0511 99.2716 42.7238 98.5802C42.4688 98.0413 42.5918 97.4209 42.9858 97.0184C43.2693 96.4295 43.1601 95.7509 43.0658 95.1645L43.0658 95.1644C43.0512 95.0738 43.037 94.9854 43.0246 94.8999C42.9601 94.4538 42.7364 93.3249 41.7524 93.1109C41.0616 92.9607 40.2771 93.8297 39.9585 94.578C40.2013 95.2426 39.9016 95.9949 39.2494 96.3036C38.558 96.6308 37.7323 96.3356 37.405 95.6442C37.0778 94.9528 37.373 94.127 38.0644 93.7998C38.3305 93.6738 38.6165 93.6401 38.8864 93.6857C39.1821 93.6298 39.6023 93.4411 40.1806 92.6632C40.98 91.5721 40.9585 90.4452 40.8423 89.9869C40.6321 89.4368 40.6297 88.8513 40.8017 88.3236C40.51 87.3049 39.9311 85.6258 39.5958 84.6869C39.5121 84.4021 39.4251 84.1017 39.3344 83.7885Z" fill="#18FFFF"></path><path fill-rule="evenodd" clip-rule="evenodd" d="M31.7006 34.6003C29.2449 34.0211 28.465 30.19 27.673 26.2997L27.673 26.2997C27.5411 25.6517 27.4089 25.0022 27.2685 24.3657V4.30854C28.6329 5.37022 30.1014 6.29764 31.7006 6.72943V34.6003ZM41.6659 28.1227C40.3107 29.5755 39.0994 30.7521 38.0145 31.6858L36.6118 26.0751C35.7344 26.274 34.831 26.3767 33.917 26.3767V26.3768H31.7009V21.9446H33.9167V21.9207C35.9674 21.9207 37.9342 21.106 39.3842 19.6559C40.8343 18.2058 41.649 16.2391 41.649 14.1884C41.649 12.1376 40.8343 10.1709 39.3842 8.72081C39.1128 8.44933 38.8232 8.20013 38.5183 7.97438C41.6807 9.06429 43.5214 10.9568 45.0186 13.6648C45.658 14.8214 45.6944 16.4712 45.4102 18.245C44.81 19.9452 43.8344 21.5076 42.5352 22.8068C41.9475 23.3945 41.3061 23.9159 40.6224 24.3663L41.6659 28.1227ZM13.6576 6.43213C13.9251 5.10694 14.6514 3.63823 15.9865 2H22.8368V6.43213H13.6576ZM8.43213 80.3406V90.6426H4V80.6557C4.03297 80.6436 4.0662 80.6316 4.0997 80.6197C6.06364 79.9193 7.401 79.8606 8.43213 80.3406ZM8.43213 60.9666C5.75644 60.618 4.94834 56.6485 4.12731 52.6155C4.08499 52.4076 4.04264 52.1996 4 51.9919V48.5374H8.43213V60.9666ZM14.6728 71.806C13.8908 70.4903 13.4858 69.0206 13.7865 67.3739H22.8368V71.806H14.6728ZM31.7006 77.9541C30.4419 78.0941 28.8798 78.2004 27.2685 78.1988V49.4451C28.8888 51.4263 30.2224 53.5276 31.0156 55.2734C31.24 55.2734 31.4686 55.2786 31.7006 55.2891V77.9541ZM43.1138 85.3619C43.3111 85.8164 43.553 86.2632 43.8252 86.6848C44.5081 86.8686 45.1091 87.3395 45.4354 88.0289C45.4755 88.1136 45.5104 88.1996 45.5403 88.2862C45.5474 88.2858 45.5514 88.2864 45.5522 88.2881L45.5562 88.2969C45.5991 88.392 45.818 88.8772 47.0868 89.1563C47.9036 89.3359 48.3669 88.9392 48.7332 88.6255L48.7722 88.5922C48.9078 88.3491 49.1179 88.1443 49.3887 88.0161C50.0801 87.6889 50.9059 87.9841 51.2332 88.6755C51.5604 89.3669 51.2652 90.1927 50.5738 90.5199C50.0594 90.7634 49.4707 90.6623 49.0682 90.3099C48.8581 90.2113 48.6344 90.194 48.4118 90.1984L48.3774 90.1962C47.9209 90.1663 47.0073 90.1064 46.6794 90.9613C46.3713 91.7646 46.8778 92.3399 47.1599 92.6605L47.16 92.6606L47.1999 92.7061C47.2108 92.7186 47.2213 92.7307 47.2311 92.7423L47.9425 93.63C48.8943 94.4538 49.1748 94.5212 49.4334 94.5833L49.4601 94.5898C50.0596 94.4836 50.6796 94.7847 50.9526 95.3616C51.2799 96.053 50.9847 96.8787 50.2933 97.206C49.6019 97.5332 48.7761 97.238 48.4488 96.5466C48.3613 96.3616 48.3183 96.1671 48.3155 95.975C48.0802 95.6204 47.8772 95.3102 47.7016 95.042L47.7012 95.0412L47.7011 95.0412C47.2975 94.4244 47.0387 94.029 46.8648 93.8241C46.794 93.7458 46.7017 93.6273 46.5921 93.4868L46.5919 93.4865L46.5919 93.4864C46.3673 93.1984 46.0706 92.8177 45.7393 92.4998C45.1229 91.9083 44.9168 91.8877 44.3248 92.1178C43.7943 92.324 43.9166 92.9766 43.9888 93.3069L44.1856 94.3C44.3542 94.9883 44.4666 95.4905 44.5499 95.8627L44.5499 95.8628C44.6992 96.5296 44.7549 96.7786 44.8728 96.9318C45.0185 97.0554 45.1408 97.2112 45.2278 97.3951C45.5551 98.0866 45.2599 98.9123 44.5685 99.2396C43.8771 99.5668 43.0513 99.2716 42.724 98.5802C42.469 98.0414 42.592 97.4209 42.986 97.0185C43.2695 96.4295 43.1603 95.7509 43.066 95.1644C43.0514 95.0739 43.0372 94.9855 43.0248 94.9C42.9603 94.4538 42.7366 93.3249 41.7526 93.1109C41.0618 92.9607 40.2773 93.8297 39.9587 94.578C40.2015 95.2427 39.9018 95.9949 39.2496 96.3036C38.5582 96.6309 37.7325 96.3357 37.4052 95.6443C37.078 94.9529 37.3732 94.1271 38.0646 93.7998C38.3307 93.6739 38.6167 93.6401 38.8866 93.6857C39.1823 93.6299 39.6026 93.4411 40.1808 92.6632C40.9802 91.5721 40.9587 90.4453 40.8425 89.9869C40.6323 89.4368 40.6299 88.8513 40.8019 88.3237C40.6364 87.7456 40.3784 86.9549 40.1249 86.2075C41.0771 85.9307 42.1188 85.6374 43.1138 85.3619ZM39.9413 73.1611C38.98 74.0642 37.8593 74.9978 36.5639 75.9609C36.0106 74.8234 35.3817 73.7681 34.6609 72.8914C34.4139 72.9065 34.1658 72.9141 33.917 72.9141H31.7009V68.482H33.9167V68.458C35.9674 68.458 37.9342 67.6434 39.3842 66.1933C40.8343 64.7432 41.649 62.7765 41.649 60.7257C41.649 59.9607 41.5356 59.2074 41.3182 58.4883C44.0299 60.4575 45.6474 63.2954 44.4245 66.9016C43.9052 67.7853 43.2723 68.6071 42.5352 69.3442C41.6445 70.2349 40.6302 70.9734 39.5326 71.5432L39.9413 73.1611ZM4 30.837C5.36495 31.8687 6.83372 32.7448 8.43213 33.1147V44.1053H4V30.837ZM66.6653 39.6731C64.9997 42.0856 63.0669 43.7881 60.7875 43.8282C58.3028 43.8719 57.1307 42.1979 56.6531 39.6731H66.6653ZM78.2384 19.1531C76.5657 21.0658 74.9217 22.9789 73.8063 24.7911V3.44415C75.3998 3.58185 76.9425 3.82997 78.2384 4.1068V19.1531ZM78.2387 4.10685C79.6086 4.39949 80.7028 4.72421 81.2899 4.98449C82.2706 5.41923 83.0092 5.90415 83.5408 6.43213H78.2387V4.10685ZM69.3741 3.41327V6.43213H63.1085C63.6279 5.90014 64.1515 5.41664 64.6657 4.98449C65.7678 4.05805 67.4669 3.58834 69.3741 3.41327ZM57.1577 20.8365H69.3741V25.2687H57.1202C57.2137 23.8404 57.2547 22.5117 57.183 21.367C57.1719 21.1893 57.1635 21.0124 57.1577 20.8365ZM86.4563 44.1052C86.2318 42.6957 85.9951 41.0118 85.8784 39.6731H92.6431V44.1052H86.4563ZM78.2387 59.5996C77.4013 59.3452 76.6059 59.247 75.8841 59.3407C75.2437 59.4894 74.546 59.4742 73.8063 59.3443V81.2243C73.8063 81.8257 73.8627 82.4139 73.9704 82.9839C74.1444 82.867 74.3206 82.7423 74.4991 82.6094C75.6132 81.7802 76.8933 81.2369 78.2387 80.8516V59.5996ZM90.4716 71.8061H88.211L83.7785 71.8061V76.2382L88.211 76.2383V78.833C89.5537 78.2763 90.5553 77.4183 90.9811 75.9613C91.3164 74.8137 91.091 73.3662 90.4716 71.8061ZM68.8063 84.4535C69.1739 83.4463 69.3745 82.3587 69.3745 81.2243V57.9557C69.3745 57.8893 69.3738 57.823 69.3724 57.757C69.0139 57.5923 68.653 57.4233 68.2909 57.2538C66.967 56.6338 65.6264 56.0061 64.3274 55.5556C64.7191 56.2676 64.942 57.0857 64.942 57.9557V81.2244C64.942 81.856 64.8246 82.4602 64.6103 83.0163C65.9835 83.6858 67.3413 84.2943 68.8063 84.4535ZM54.9697 70.6904V63.1373C54.7325 64.6556 54.5705 66.4283 54.4946 68.4897C54.4868 68.702 54.6512 69.5361 54.9697 70.6904ZM22.8368 48.5374H8.43235V52.9695H22.8368V48.5374Z" fill="#76FF03"></path></g><defs><filter id="filter0_d_111_11" x="0.633823" y="0.877941" width="95.3759" height="106.732" filterUnits="userSpaceOnUse" color-interpolation-filters="sRGB"><feFlood flood-opacity="0" result="BackgroundImageFix"></feFlood><feColorMatrix in="SourceAlpha" type="matrix" values="0 0 0 0 0 0 0 0 0 0 0 0 0 0 0 0 0 0 127 0" result="hardAlpha"></feColorMatrix><feOffset dy="2.24412"></feOffset><feGaussianBlur stdDeviation="1.68309"></feGaussianBlur><feComposite in2="hardAlpha" operator="out"></feComposite><feColorMatrix type="matrix" values="0 0 0 0 0 0 0 0 0 0 0 0 0 0 0 0 0 0 0.25 0"></feColorMatrix><feBlend mode="normal" in2="BackgroundImageFix" result="effect1_dropShadow_111_11"></feBlend><feBlend mode="normal" in="SourceGraphic" in2="effect1_dropShadow_111_11" result="shape"></feBlend></filter></defs></svg> 